<svg xmlns="http://www.w3.org/2000/svg" width="26.303" height="24.999" viewBox="0 0 26.303 24.999">
    <g id="prefix__home_activé" data-name="home activé" transform="translate(-1402.902 1665.248)">
        <g id="prefix__Group_663-2" data-name="Group 663-2">
            <path id="prefix__Path_618-2" fill="#fb5557" d="M1428.765-1654.143l-11.8-10.752a1.345 1.345 0 0 0-1.817 0l-11.8 10.752a1.349 1.349 0 0 0-.088 1.906 1.352 1.352 0 0 0 1 .44h1.884v10.775a.773.773 0 0 0 .773.773h5.443a.773.773 0 0 0 .773-.773v-7.056h5.858v7.056a.771.771 0 0 0 .772.773h5.443a.773.773 0 0 0 .773-.773v-10.778h1.886a1.348 1.348 0 0 0 1.349-1.347 1.346 1.346 0 0 0-.441-1z" data-name="Path 618-2"/>
        </g>
    </g>
</svg>
