<svg xmlns="http://www.w3.org/2000/svg" width="26.305" height="25.003" viewBox="0 0 26.305 25.003">
    <g id="prefix__home_desactivé" data-name="home desactivé" transform="translate(64.284 -375.433)">
        <path id="prefix__Path_639" fill="none" d="M-38.426 386.543l-11.8-10.751a1.346 1.346 0 0 0-1.816 0l-11.8 10.751a1.349 1.349 0 0 0-.088 1.906 1.351 1.351 0 0 0 1 .44h1.883v10.773a.774.774 0 0 0 .772.774h5.443a.773.773 0 0 0 .774-.774v-7.055h5.858v7.055a.772.772 0 0 0 .77.774h5.444a.774.774 0 0 0 .773-.774v-10.775h1.886a1.349 1.349 0 0 0 1.349-1.348 1.352 1.352 0 0 0-.441-1z" data-name="Path 639"/>
        <path id="prefix__Path_640" fill="#b0b3bc" d="M-51.134 376.687a.1.1 0 0 0-.066.027L-63 387.465a.091.091 0 0 0-.027.109.091.091 0 0 0 .093.064h3.134v11.547h4.488v-7.829h8.357v7.829h4.488v-11.547h3.135a.09.09 0 0 0 .092-.061.1.1 0 0 0-.026-.111l-11.8-10.75a.1.1 0 0 0-.067-.029m0-1.25a1.347 1.347 0 0 1 .909.354l11.8 10.75a1.349 1.349 0 0 1 .091 1.905 1.345 1.345 0 0 1-1 .441h-1.885v10.774a.773.773 0 0 1-.773.773h-5.442a.773.773 0 0 1-.773-.772v-7.056h-5.857v7.056a.773.773 0 0 1-.773.773h-5.441a.773.773 0 0 1-.774-.772v-10.776h-1.885a1.349 1.349 0 0 1-1.349-1.349 1.351 1.351 0 0 1 .44-1l11.8-10.75a1.346 1.346 0 0 1 .908-.354z" data-name="Path 640"/>
    </g>
</svg>
