<svg xmlns="http://www.w3.org/2000/svg" width="19.824" height="25" viewBox="0 0 19.824 25">
    <defs>
        <style>
            .cls-1{fill:#fb5557}
        </style>
    </defs>
    <g id="mon_espace_activé" data-name="mon espace activé" transform="translate(-1489.25 1685.251)">
        <path id="Path_643" d="M1499.025-1672.7h.154a4.453 4.453 0 0 0 3.4-1.471c1.858-2.094 1.549-5.684 1.515-6.026a4.916 4.916 0 0 0-2.34-4.376 5.356 5.356 0 0 0-2.595-.68h-.083a5.36 5.36 0 0 0-2.595.661 4.922 4.922 0 0 0-2.37 4.4c-.033.342-.342 3.932 1.515 6.026a4.439 4.439 0 0 0 3.399 1.466z" class="cls-1" data-name="Path 643"/>
        <path id="Path_644" d="M1509.069-1665.042v-.015-.12a5.251 5.251 0 0 0-.522-2.2l-.04-.1a4.186 4.186 0 0 0-.12-.242 3.485 3.485 0 0 0-.217-.36c-.031-.045-.061-.09-.094-.133-1.386-1.853-4.848-3.167-8.91-3.167s-7.508 1.309-8.9 3.155c-.045.057-.084.116-.125.175a4.11 4.11 0 0 0-.32.581c-.011.029-.024.056-.035.083a5.249 5.249 0 0 0-.522 2.2.961.961 0 0 1-.005.12v.015a7.357 7.357 0 0 0 .246 2.185.612.612 0 0 0 .25.3 20.385 20.385 0 0 0 18.834 0 .647.647 0 0 0 .25-.3 7.779 7.779 0 0 0 .23-2.177z" class="cls-1" data-name="Path 644"/>
    </g>
</svg>
