<svg xmlns="http://www.w3.org/2000/svg" width="25.161" height="25.102" viewBox="0 0 25.161 25.102">
    <g id="prefix__search_activé" fill="#fb5557" data-name="search activé" transform="translate(-7753.946 -3604.971)">
        <path id="prefix__search_desactivé" stroke="#fb5557" stroke-width="0.1px" d="M446.1-1430.172l-6.072-6.073a10.664 10.664 0 0 0-1.068-15.042 10.664 10.664 0 0 0-15.043 1.068 10.663 10.663 0 0 0 1.068 15.042 10.664 10.664 0 0 0 13.99-.013l6.072 6.072a.751.751 0 0 0 .527.221.727.727 0 0 0 .526-.221.748.748 0 0 0 0-1.054zm-23.278-13.056a9.159 9.159 0 0 1 9.165-9.154 9.159 9.159 0 0 1 9.154 9.165 9.16 9.16 0 0 1-9.159 9.154 9.17 9.17 0 0 1-9.158-9.165z" data-name="search desactivé" transform="translate(7332.69 5058.92)"/>
        <circle id="prefix__Ellipse_55" cx="6.142" cy="6.142" r="6.142" data-name="Ellipse 55" transform="translate(7758.567 3609.589)"/>
    </g>
</svg>
