<svg xmlns="http://www.w3.org/2000/svg" width="19.79" height="25" viewBox="0 0 19.79 25">
    <g>
        <g>
            <path d="M149.62 192.034H139.2a.521.521 0 0 0-.521.521v8.333a2.609 2.609 0 0 0 2.083 2.552v2.66a1.562 1.562 0 0 0 3.125 0v-2.6h1.042v2.6a1.562 1.562 0 0 0 3.125 0v-2.656a2.608 2.608 0 0 0 2.083-2.552v-8.333a.52.52 0 0 0-.517-.525z" transform="translate(4.166 9.376) translate(-138.683 -192.034)"/>
        </g>
    </g>
    <g>
        <g>
            <path d="M147.139 2.775l.878-2.049a.521.521 0 0 0-.957-.409l-.878 2.05a5.676 5.676 0 0 0-3.535 0l-.88-2.05a.52.52 0 1 0-.956.409l.878 2.049a5.733 5.733 0 0 0-3 5.038.521.521 0 0 0 .521.521h10.416a.521.521 0 0 0 .521-.521 5.734 5.734 0 0 0-3.008-5.038zm-4.809 3.476a.521.521 0 1 1 .521-.521.521.521 0 0 1-.521.521zm4.166 0a.521.521 0 1 1 .521-.521.521.521 0 0 1-.517.521z" transform="translate(4.166) translate(-138.684 .001)"/>
        </g>
    </g>
    <g>
        <g>
            <path d="M396.246 192.034a1.564 1.564 0 0 0-1.562 1.562v5.204a1.562 1.562 0 1 0 3.125 0v-5.2a1.564 1.564 0 0 0-1.563-1.566z" transform="translate(16.666 9.376) translate(-394.684 -192.034)"/>
        </g>
    </g>
    <g>
        <g>
            <path d="M54.912 192.034a1.564 1.564 0 0 0-1.562 1.566v5.2a1.562 1.562 0 1 0 3.125 0v-5.2a1.564 1.564 0 0 0-1.563-1.566z" transform="translate(0 9.376) translate(-53.35 -192.034)"/>
        </g>
    </g>
</svg>
