<svg xmlns="http://www.w3.org/2000/svg" width="60" height="60" viewBox="0 0 60 60">
    <defs>
        <style>
            .cls-2{fill:#b0b3bc}
        </style>
    </defs>
    <g id="avatar2" transform="translate(-20 -222)">
        <circle id="Ellipse_56" cx="30" cy="30" r="30" fill="#d8d8d8" transform="translate(20 222)"/>
        <g id="mon_espace_activé" transform="translate(36 234)">
            <path id="Path_643" d="M1501.2-1667.174h.222a6.413 6.413 0 0 0 4.9-2.118c2.676-3.015 2.231-8.186 2.181-8.678-.174-3.7-1.919-5.475-3.369-6.3a7.715 7.715 0 0 0-3.737-.979h-.119a7.722 7.722 0 0 0-3.737.952c-1.46.826-3.24 2.6-3.413 6.329-.047.492-.493 5.662 2.182 8.678a6.393 6.393 0 0 0 4.89 2.116z" class="cls-2" transform="translate(-1487.128 1685.251)"/>
            <path id="Path_644" d="M1517.79-1662.257v-.022c0-.054-.006-.109-.006-.173a7.552 7.552 0 0 0-.751-3.162c-.018-.047-.038-.092-.057-.14-.054-.12-.113-.233-.173-.349a5.023 5.023 0 0 0-.312-.519c-.045-.065-.088-.13-.135-.191-2-2.668-6.981-4.561-12.831-4.561s-10.811 1.885-12.816 4.543c-.064.082-.121.167-.18.252-.092.138-.177.278-.253.419s-.144.275-.207.418c-.016.042-.035.081-.051.12a7.571 7.571 0 0 0-.751 3.164 1.361 1.361 0 0 1-.007.173v.022a10.6 10.6 0 0 0 .354 3.146.876.876 0 0 0 .36.438 29.354 29.354 0 0 0 27.121 0 .929.929 0 0 0 .36-.437 11.189 11.189 0 0 0 .335-3.141z" class="cls-2" transform="translate(-1489.25 1691.359)"/>
        </g>
    </g>
</svg>
