<svg xmlns="http://www.w3.org/2000/svg" width="11.26" height="16.034" viewBox="0 0 11.26 16.034">
    <defs>
        <style>
            .cls-1{stroke:#000;stroke-width:.75px}
        </style>
    </defs>
    <g id="Groupe_820" transform="translate(.377 .375)">
        <path id="Tracé_76" d="M22.736 12a2.179 2.179 0 1 1-2.179 2.179A2.181 2.181 0 0 1 22.736 12zm0 3.735a1.556 1.556 0 1 0-1.556-1.556 1.558 1.558 0 0 0 1.556 1.556z" class="cls-1" transform="translate(-17.528 -8.867)"/>
        <path id="Tracé_77" d="M9.74 1.539a5.253 5.253 0 0 1 7.429 0 5.984 5.984 0 0 1 .494 7.383L13.455 15l-4.2-6.07a5.986 5.986 0 0 1 .485-7.391zM9.7 8.61l3.758 5.427L17.219 8.6a5.406 5.406 0 0 0-.437-6.676 4.705 4.705 0 0 0-6.654 0A5.408 5.408 0 0 0 9.7 8.61z" class="cls-1" transform="translate(-8.203)"/>
    </g>
</svg>
