<svg xmlns="http://www.w3.org/2000/svg" width="12.184" height="12.401" viewBox="0 0 12.184 12.401">
    <g>
        <g>
            <g>
                <path stroke="#000" stroke-width="0.4px" d="M9.23 0h.019a5.887 5.887 0 0 1 4.617 9.555l.858 1.993a.32.32 0 0 1-.167.421.327.327 0 0 1-.183.023l-3.148-.553a5.672 5.672 0 0 1-1.961.341A5.892 5.892 0 0 1 9.23 0zm.032 11.144a5.161 5.161 0 0 0 1.817-.331.308.308 0 0 1 .17-.016l2.649.463-.7-1.63a.323.323 0 0 1 .051-.338 5.14 5.14 0 0 0 .894-1.485A5.249 5.249 0 1 0 4.006 5.864v.019a5.264 5.264 0 0 0 5.257 5.261z" transform="translate(.2 .2) translate(-3.366)"/>
            </g>
        </g>
    </g>
</svg>
