<svg xmlns="http://www.w3.org/2000/svg" width="15.129" height="15.401" viewBox="0 0 15.129 15.401">
    <g>
        <g>
            <g>
                <path fill="#fff" stroke="#fff" stroke-width="0.4px" d="M10.7 0h.024a7.359 7.359 0 0 1 5.771 11.944l1.073 2.492a.4.4 0 0 1-.209.526.409.409 0 0 1-.229.028l-3.938-.69a7.091 7.091 0 0 1-2.452.426A7.365 7.365 0 0 1 10.7 0zm.04 13.93a6.451 6.451 0 0 0 2.271-.414.385.385 0 0 1 .213-.02l3.312.579-.876-2.038a.4.4 0 0 1 .064-.422 6.425 6.425 0 0 0 1.117-1.857A6.562 6.562 0 1 0 4.166 7.331v.024a6.579 6.579 0 0 0 6.571 6.575z" transform="translate(.2 .2) translate(-3.366)"/>
            </g>
        </g>
    </g>
</svg>
