<svg xmlns="http://www.w3.org/2000/svg" width="20.004" height="20" viewBox="0 0 20.004 20">
    <defs>
        <style>
            .cls-1{fill:#858891}
        </style>
    </defs>
    <g id="close" transform="translate(1883.256 -1202.83)">
        <path id="Path_230" d="M-1863.865 1203.433a.96.96 0 0 0-1.36 0l-8.026 8.029-8.024-8.029a.964.964 0 0 0-1.367 0 .966.966 0 0 0 0 1.368l8.026 8.029-8.026 8.029a.964.964 0 0 0 0 1.365.955.955 0 0 0 .688.283.957.957 0 0 0 .689-.283l8.024-8.029 8.026 8.029a.961.961 0 0 0 .691.283.967.967 0 0 0 .688-.283.969.969 0 0 0 0-1.367l-8.024-8.029 8.024-8.029a.967.967 0 0 0-.029-1.366z" class="cls-1" data-name="Path 230" transform="translate(0 .001)"/>
        <path id="Path_231" d="M-1871.025 1212.828l7.31-7.31a1.551 1.551 0 0 0 .464-1.114 1.559 1.559 0 0 0-.464-1.112 1.572 1.572 0 0 0-2.226 0l-7.312 7.308-7.312-7.308a1.574 1.574 0 0 0-2.228 0 1.566 1.566 0 0 0-.462 1.112 1.57 1.57 0 0 0 .462 1.114l7.31 7.312-7.31 7.31a1.571 1.571 0 0 0-.462 1.114 1.575 1.575 0 0 0 .462 1.114 1.555 1.555 0 0 0 1.116.462 1.546 1.546 0 0 0 1.112-.462l7.31-7.31 7.312 7.31a1.562 1.562 0 0 0 1.116.462 1.56 1.56 0 0 0 1.114-.46 1.555 1.555 0 0 0 .462-1.114 1.555 1.555 0 0 0-.462-1.114z" class="cls-1" data-name="Path 231" transform="translate(-.001)"/>
    </g>
</svg>
