<svg xmlns="http://www.w3.org/2000/svg" width="10.002" height="10" viewBox="0 0 10.002 10">
    <g>
        <path d="M-1873.708 1203.286a.464.464 0 0 0-.658 0l-3.882 3.882-3.881-3.882a.467.467 0 0 0-.661 0 .467.467 0 0 0 0 .661l3.882 3.882-3.882 3.881a.466.466 0 0 0 0 .66.462.462 0 0 0 .333.137.462.462 0 0 0 .333-.137l3.881-3.881 3.882 3.881a.464.464 0 0 0 .334.137.467.467 0 0 0 .333-.137.468.468 0 0 0 0-.661l-3.881-3.881 3.881-3.882a.467.467 0 0 0-.014-.66z" transform="translate(1883.256 -1202.83) translate(0 .001)"/>
        <path d="M-1877.14 1207.829l3.655-3.655a.775.775 0 0 0 .232-.557.779.779 0 0 0-.232-.556.786.786 0 0 0-1.113 0l-3.656 3.654-3.656-3.654a.787.787 0 0 0-1.114 0 .783.783 0 0 0-.231.556.785.785 0 0 0 .231.557l3.655 3.656-3.655 3.655a.786.786 0 0 0-.231.557.787.787 0 0 0 .231.557.777.777 0 0 0 .558.231.773.773 0 0 0 .556-.231l3.655-3.655 3.656 3.655a.781.781 0 0 0 .558.231.78.78 0 0 0 .557-.23.777.777 0 0 0 .231-.557.778.778 0 0 0-.231-.557z" transform="translate(1883.256 -1202.83) translate(-.001)"/>
    </g>
</svg>
