<svg xmlns="http://www.w3.org/2000/svg" width="21.818" height="15" viewBox="0 0 21.818 15">
    <g>
        <path d="M19.432 80H2.386A2.389 2.389 0 0 0 0 82.386v10.228A2.389 2.389 0 0 0 2.386 95h17.046a2.389 2.389 0 0 0 2.386-2.386V82.386A2.389 2.389 0 0 0 19.432 80zM2.386 81.364h17.046a1.024 1.024 0 0 1 1.023 1.023v1.363H1.364v-1.364a1.024 1.024 0 0 1 1.022-1.022zm17.046 12.272H2.386a1.024 1.024 0 0 1-1.023-1.023v-7.5h19.092v7.5a1.024 1.024 0 0 1-1.023 1.023z" transform="translate(0 -80)"/>
        <path d="M81.364 306.045h-.682a.682.682 0 0 1-.682-.682v-.682a.682.682 0 0 1 .682-.682h.682a.682.682 0 0 1 .682.682v.682a.682.682 0 0 1-.682.682z" transform="translate(0 -80) translate(-76.591 -214.455)"/>
    </g>
</svg>
