<svg xmlns="http://www.w3.org/2000/svg" id="pas_de_favoris" width="500" height="450.12" viewBox="0 0 500 450.12">
    <defs>
        <style>
            .cls-1{fill:#f1f5f8}.cls-2{fill:#a4e1b3}.cls-3{fill:#ed9e6d}.cls-4{fill:#ffd59b}.cls-8{fill:#5cc1a0}.cls-9{fill:#d2c9ff}.cls-11{fill:#ff85f3}.cls-12{fill:#ffe96f}.cls-14{fill:#ffb14a}.cls-19{fill:#ea9696}.cls-20{fill:#facfce}.cls-25{fill:#f58720}.cls-27{fill:#ffd24a}.cls-28{fill:#ffa439}.cls-31{fill:#a499dd}.cls-35{fill:#c82938}.cls-36{fill:#fdd1a2}.cls-37{fill:#f4cb1e}.cls-41{fill:#f7adb8}
        </style>
    </defs>
    <g id="Group_640" transform="translate(0 92.818)">
        <circle id="Ellipse_20" cx="35.201" cy="35.201" r="35.201" class="cls-1"/>
        <path id="Path_418" d="M-408.42 427.491a28.948 28.948 0 0 1 40.537 5.7 28.947 28.947 0 0 1-5.7 40.534 28.946 28.946 0 0 1-40.537-5.7 28.945 28.945 0 0 1 5.7-40.537z" class="cls-2" transform="translate(425.826 -415.463)"/>
        <g id="Group_635" transform="translate(12.185 29.308)">
            <circle id="Ellipse_21" cx="8.995" cy="8.995" r="8.995" class="cls-3"/>
            <g id="Group_634" transform="translate(2.083 1.659)">
                <g id="Group_602" transform="translate(5.761 4.549)">
                    <path id="Path_435" d="M-404.041 454.686a.345.345 0 0 0 .229-.408 1.2 1.2 0 0 0-.352-.522.13.13 0 0 0-.182 0 .115.115 0 0 0-.027.042 1.208 1.208 0 0 0-.091.635.34.34 0 0 0 .406.257z" class="cls-4" transform="translate(404.474 -453.719)"/>
                </g>
                <g id="Group_603" transform="translate(7.593 5.539)">
                    <path id="Path_436" d="M-402.434 455.258a.294.294 0 0 0 .378.115 1.028 1.028 0 0 0 .366-.385.111.111 0 0 0-.038-.153.117.117 0 0 0-.038-.015 1.026 1.026 0 0 0-.54.036.289.289 0 0 0-.138.383z" class="cls-4" transform="translate(402.471 -454.8)"/>
                </g>
                <g id="Group_604" transform="translate(8.415 7.16)">
                    <path id="Path_437" d="M-401.563 456.831a.348.348 0 0 0 .229.412 1.233 1.233 0 0 0 .634-.026.133.133 0 0 0 .091-.161.117.117 0 0 0-.022-.047 1.213 1.213 0 0 0-.493-.417.341.341 0 0 0-.434.209z" class="cls-4" transform="translate(401.573 -456.573)"/>
                </g>
                <g id="Group_605" transform="translate(6.386 8.031)">
                    <path id="Path_438" d="M-403.691 458.177a.3.3 0 0 0 .406-.016 1.041 1.041 0 0 0 .223-.5.115.115 0 0 0-.086-.137.129.129 0 0 0-.046 0 1.053 1.053 0 0 0-.51.218.3.3 0 0 0 0 .417z" class="cls-4" transform="translate(403.791 -457.526)"/>
                </g>
                <g id="Group_606" transform="translate(4.978 6.543)">
                    <path id="Path_439" d="M-405.331 456.166a.274.274 0 0 0 .254.274.972.972 0 0 0 .482-.139.105.105 0 0 0 .045-.143.117.117 0 0 0-.027-.032.956.956 0 0 0-.457-.228.275.275 0 0 0-.295.252z" class="cls-4" transform="translate(405.331 -455.898)"/>
                </g>
                <g id="Group_607" transform="translate(4.553 8.525)">
                    <path id="Path_440" d="M-405.234 458.128a.268.268 0 0 0-.366.021.945.945 0 0 0-.194.448.1.1 0 0 0 .081.121.1.1 0 0 0 .038 0 .926.926 0 0 0 .453-.2.262.262 0 0 0 0-.372z" class="cls-4" transform="translate(405.795 -458.066)"/>
                </g>
                <g id="Group_608" transform="translate(6.794 10.16)">
                    <path id="Path_441" d="M-403.1 459.866a.347.347 0 0 0-.242.4 1.231 1.231 0 0 0 .336.533.132.132 0 0 0 .183 0 .114.114 0 0 0 .03-.045 1.19 1.19 0 0 0 .114-.63.339.339 0 0 0-.4-.27z" class="cls-4" transform="translate(403.345 -459.853)"/>
                </g>
                <g id="Group_609" transform="translate(9.456 9.695)">
                    <path id="Path_442" d="M-400.411 459.544a.334.334 0 0 0 .162.421 1.178 1.178 0 0 0 .6.06.127.127 0 0 0 .113-.14.136.136 0 0 0-.015-.047 1.173 1.173 0 0 0-.412-.457.327.327 0 0 0-.44.144z" class="cls-4" transform="translate(400.434 -459.345)"/>
                </g>
                <g id="Group_610" transform="translate(10.808 7.852)">
                    <path id="Path_443" d="M-398.933 457.731a.291.291 0 0 0 .359.159 1.021 1.021 0 0 0 .408-.334.111.111 0 0 0-.019-.156.148.148 0 0 0-.037-.019 1.016 1.016 0 0 0-.536-.029.286.286 0 0 0-.183.359z" class="cls-4" transform="translate(398.956 -457.33)"/>
                </g>
                <g id="Group_611" transform="translate(10.43 6.049)">
                    <path id="Path_444" d="M-399.351 455.71a.255.255 0 0 0 .314.14.891.891 0 0 0 .357-.294.1.1 0 0 0-.016-.134.1.1 0 0 0-.033-.017.89.89 0 0 0-.469-.026.25.25 0 0 0-.157.316z" class="cls-4" transform="translate(399.369 -455.358)"/>
                </g>
                <g id="Group_612" transform="translate(9.556 4.413)">
                    <path id="Path_445" d="M-400.257 454.011a.2.2 0 0 0 .274-.012.718.718 0 0 0 .15-.337.078.078 0 0 0-.059-.091.081.081 0 0 0-.031 0 .708.708 0 0 0-.344.149.2.2 0 0 0 0 .282z" class="cls-4" transform="translate(400.325 -453.57)"/>
                </g>
                <g id="Group_613" transform="translate(7.668 3.303)">
                    <path id="Path_446" d="M-402.191 453a.228.228 0 0 0 .246-.183.807.807 0 0 0-.074-.406.092.092 0 0 0-.122-.042l-.018.013a.8.8 0 0 0-.224.355.224.224 0 0 0 .174.262h.02z" class="cls-4" transform="translate(402.389 -452.356)"/>
                </g>
                <g id="Group_614" transform="translate(4.096 2.965)">
                    <path id="Path_447" d="M-405.519 452.7a.348.348 0 0 0-.033-.47 1.214 1.214 0 0 0-.585-.245.132.132 0 0 0-.156.1.176.176 0 0 0 0 .053 1.224 1.224 0 0 0 .274.585.341.341 0 0 0 .484-.005z" class="cls-4" transform="translate(406.295 -451.986)"/>
                </g>
                <g id="Group_615" transform="translate(2.821 5.208)">
                    <path id="Path_448" d="M-406.744 454.809a.335.335 0 0 0-.267-.366 1.171 1.171 0 0 0-.6.1.126.126 0 0 0-.072.164.11.11 0 0 0 .026.041 1.159 1.159 0 0 0 .519.333.328.328 0 0 0 .386-.256z" class="cls-4" transform="translate(407.689 -454.439)"/>
                </g>
                <g id="Group_616" transform="translate(2.476 7.419)">
                    <path id="Path_449" d="M-407.277 457.031a.291.291 0 0 0-.358-.16 1.032 1.032 0 0 0-.409.335.112.112 0 0 0 .02.155.127.127 0 0 0 .037.018 1.012 1.012 0 0 0 .537.03.286.286 0 0 0 .183-.359z" class="cls-4" transform="translate(408.066 -456.856)"/>
                </g>
                <g id="Group_617" transform="translate(2.783 10.09)">
                    <path id="Path_450" d="M-407.3 459.8a.275.275 0 0 0-.349.109.949.949 0 0 0-.08.484.1.1 0 0 0 .105.1.084.084 0 0 0 .039-.01.926.926 0 0 0 .392-.307.264.264 0 0 0-.089-.364z" class="cls-4" transform="translate(407.731 -459.777)"/>
                </g>
                <g id="Group_618" transform="translate(5.027 11.87)">
                    <path id="Path_451" d="M-405.1 461.785a.443.443 0 0 0-.177.382c.038.129.153.3.195.467a.133.133 0 0 0 .158.1.115.115 0 0 0 .048-.022.734.734 0 0 0 .264-.708.365.365 0 0 0-.212-.263.276.276 0 0 0-.276.044z" class="cls-4" transform="translate(405.277 -461.723)"/>
                </g>
                <g id="Group_619" transform="translate(7.445 12.449)">
                    <path id="Path_452" d="M-402.484 462.43a.373.373 0 0 0-.091.5 1.3 1.3 0 0 0 .543.409.141.141 0 0 0 .187-.065.142.142 0 0 0 .014-.055 1.314 1.314 0 0 0-.124-.68.366.366 0 0 0-.5-.123z" class="cls-4" transform="translate(402.633 -462.357)"/>
                </g>
                <g id="Group_620" transform="translate(11.032 10.915)">
                    <path id="Path_453" d="M-397.93 461.568a.392.392 0 0 0 .03-.527 1.373 1.373 0 0 0-.616-.354.15.15 0 0 0-.188.091.188.188 0 0 0-.006.059 1.362 1.362 0 0 0 .219.688.385.385 0 0 0 .54.059z" class="cls-4" transform="translate(398.711 -460.68)"/>
                </g>
                <g id="Group_621" transform="translate(12.234 4.465)">
                    <path id="Path_454" d="M-396.558 453.86a.3.3 0 0 0-.324-.231 1.055 1.055 0 0 0-.476.251.113.113 0 0 0-.015.157.1.1 0 0 0 .034.027 1.022 1.022 0 0 0 .526.139.291.291 0 0 0 .258-.319z" class="cls-4" transform="translate(397.397 -453.627)"/>
                </g>
                <g id="Group_622" transform="translate(13.123 6.743)">
                    <path id="Path_455" d="M-395.944 456.209a.226.226 0 0 0-.191-.091 1.915 1.915 0 0 1-.234.091.067.067 0 0 0-.054.076.049.049 0 0 0 .009.025.364.364 0 0 0 .358.144.156.156 0 0 0 .14-.171.15.15 0 0 0-.028-.074z" class="cls-4" transform="translate(396.424 -456.118)"/>
                </g>
                <g id="Group_623" transform="translate(8.993 1.433)">
                    <path id="Path_456" d="M-400.289 450.345a.423.423 0 0 0-.54.19 1.493 1.493 0 0 0-.1.764.162.162 0 0 0 .174.148.154.154 0 0 0 .061-.017 1.471 1.471 0 0 0 .6-.5.417.417 0 0 0-.165-.565z" class="cls-4" transform="translate(400.94 -450.311)"/>
                </g>
                <g id="Group_624" transform="translate(5.895 1.256)">
                    <path id="Path_457" d="M-404.1 450.128a.312.312 0 0 0-.219.359 1.1 1.1 0 0 0 .3.481.117.117 0 0 0 .166 0 .115.115 0 0 0 .028-.038 1.075 1.075 0 0 0 .105-.564.3.3 0 0 0-.352-.248z" class="cls-4" transform="translate(404.327 -450.118)"/>
                </g>
                <g id="Group_625" transform="translate(2.851 1.418)">
                    <path id="Path_458" d="M-407.608 450.414a.286.286 0 0 0 .061.383 1.006 1.006 0 0 0 .5.158.109.109 0 0 0 .119-.1.111.111 0 0 0 0-.042 1.007 1.007 0 0 0-.263-.457.28.28 0 0 0-.4.041z" class="cls-4" transform="translate(407.656 -450.294)"/>
                </g>
                <g id="Group_626" transform="translate(1.306 3.843)">
                    <path id="Path_459" d="M-409.335 453.091a.219.219 0 0 0 .122.269.763.763 0 0 0 .4.016.083.083 0 0 0 .066-.1.086.086 0 0 0-.011-.028.765.765 0 0 0-.285-.285.216.216 0 0 0-.283.11z" class="cls-4" transform="translate(409.346 -452.946)"/>
                </g>
                <g id="Group_627" transform="translate(0 6.377)">
                    <path id="Path_460" d="M-410.772 455.987a.308.308 0 0 0 .252.332 1.074 1.074 0 0 0 .549-.1.118.118 0 0 0 .063-.154.113.113 0 0 0-.025-.038 1.075 1.075 0 0 0-.482-.3.3.3 0 0 0-.356.239z" class="cls-4" transform="translate(410.774 -455.717)"/>
                </g>
                <g id="Group_628" transform="translate(.723 8.651)">
                    <path id="Path_461" d="M-409.983 458.455a.253.253 0 0 0 .242.241.885.885 0 0 0 .434-.141.1.1 0 0 0 .035-.132.1.1 0 0 0-.026-.028.884.884 0 0 0-.425-.191.249.249 0 0 0-.261.237z" class="cls-4" transform="translate(409.983 -458.204)"/>
                </g>
                <g id="Group_629" transform="translate(1.844 12.058)">
                    <path id="Path_462" d="M-408.745 462.235a.237.237 0 0 0 .281.154.82.82 0 0 0 .352-.246.091.091 0 0 0 0-.129.137.137 0 0 0-.028-.017.829.829 0 0 0-.433-.059.233.233 0 0 0-.172.28z" class="cls-4" transform="translate(408.757 -461.929)"/>
                </g>
                <g id="Group_630" transform="translate(5.29 14.027)">
                    <path id="Path_463" d="M-404.984 464.267a.25.25 0 0 0 .167.29.875.875 0 0 0 .448-.027.092.092 0 0 0 .069-.11.078.078 0 0 0-.019-.037.866.866 0 0 0-.354-.289.243.243 0 0 0-.3.156z" class="cls-4" transform="translate(404.989 -464.081)"/>
                </g>
                <g id="Group_631" transform="translate(12.53 8.974)">
                    <path id="Path_464" d="M-396.918 459.355a.328.328 0 0 0 .432-.092 1.153 1.153 0 0 0 .146-.576.127.127 0 0 0-.119-.131.147.147 0 0 0-.049.008 1.136 1.136 0 0 0-.5.332.322.322 0 0 0 .073.448z" class="cls-4" transform="translate(397.073 -458.557)"/>
                </g>
                <g id="Group_632" transform="translate(11.348 2.253)">
                    <path id="Path_465" d="M-398.3 451.3a.285.285 0 0 0 .016.38.993.993 0 0 0 .471.21.108.108 0 0 0 .129-.082.1.1 0 0 0 0-.04 1 1 0 0 0-.209-.482.274.274 0 0 0-.388 0z" class="cls-4" transform="translate(398.365 -451.207)"/>
                </g>
                <g id="Group_633" transform="translate(7.206)">
                    <path id="Path_466" d="M-402.886 448.961a.3.3 0 0 0 .194.354 1.047 1.047 0 0 0 .54-.018.112.112 0 0 0 .084-.134.119.119 0 0 0-.019-.041 1.05 1.05 0 0 0-.418-.358.294.294 0 0 0-.373.181z" class="cls-4" transform="translate(402.894 -448.744)"/>
                </g>
            </g>
        </g>
        <g id="Group_636" transform="translate(29.114 31.891)">
            <path id="Path_468" fill="#802c32" d="M-367.454 461.06l-.509.9a11.2 11.2 0 0 0-3.109-5.419 9.349 9.349 0 0 0-6.585-2.8 6.532 6.532 0 0 0-5.84 3.757c-.772 1.866-.5 4.072-1.435 5.859-1.681 3.2-6.34 3.594-8.513 6.48-.027.036-.049.072-.076.109l-.741-.892-.254 3.636a5.5 5.5 0 0 0 .476 2.806 5.635 5.635 0 0 0 4.717 3.177 11.087 11.087 0 0 0 4.669-1.15l8.7-3.556a17.167 17.167 0 0 0 5.431-3.038 9.235 9.235 0 0 0 2.786-5.914z" transform="translate(394.541 -450.095)"/>
            <path id="Path_469" fill="#ffb78e" d="M-370.791 452.55a9.343 9.343 0 0 0-6.584-2.8 6.528 6.528 0 0 0-5.84 3.757c-.772 1.866-.5 4.072-1.435 5.859-1.681 3.2-6.337 3.6-8.513 6.48a5.639 5.639 0 0 0-.594 5.656 5.636 5.636 0 0 0 4.717 3.177 11.088 11.088 0 0 0 4.669-1.151l8.7-3.556a17.175 17.175 0 0 0 5.432-3.036 9.341 9.341 0 0 0 2.807-7.276 10.953 10.953 0 0 0-3.359-7.11z" transform="translate(394.516 -449.754)"/>
            <path id="Path_470" fill="#d13b3b" d="M-368.83 460.5c0-.2 0-.4-.009-.6a8.059 8.059 0 0 0-.117-.958 8.645 8.645 0 0 0-.377-1.427 9.7 9.7 0 0 0-1.91-3.193c-.156-.175-.313-.346-.482-.51-.151-.146-.309-.285-.468-.419a8.263 8.263 0 0 0-3.526-1.791 6.467 6.467 0 0 0-.9-.137c-.19-.013-.383-.018-.571-.012a5.305 5.305 0 0 0-1.126.152 4.975 4.975 0 0 0-3.033 2.1 3.665 3.665 0 0 0-.286.549 9.954 9.954 0 0 0-.519 2.356c-.032.219-.064.444-.1.673a10.794 10.794 0 0 1-.583 2.309 6.9 6.9 0 0 1-.292.648 6.521 6.521 0 0 1-.366.61 8.708 8.708 0 0 1-2.7 2.469c-.384.241-.78.462-1.171.673-.285.151-.562.3-.838.441a19.057 19.057 0 0 0-2.413 1.4 5.7 5.7 0 0 0-.98.89c-.058.069-.12.135-.175.207a4.064 4.064 0 0 0-.487 3.9c.023.053.038.108.061.159a3.809 3.809 0 0 0 .676.981 4.075 4.075 0 0 0 2.644 1.3h.065a5.389 5.389 0 0 0 1.544-.167 17.779 17.779 0 0 0 2.457-.866l1.053-.431 2.35-.961 1.295-.529 3.581-1.463.42-.172q.432-.182.872-.36a21.359 21.359 0 0 0 2.394-1.146 9.054 9.054 0 0 0 1.691-1.226 7.033 7.033 0 0 0 .881-1.006 7.709 7.709 0 0 0 1.219-2.688 8.075 8.075 0 0 0 .226-1.755z" transform="translate(394.37 -449.899)"/>
        </g>
        <circle id="Ellipse_22" cx="5.03" cy="5.03" r="5.03" class="cls-8" transform="translate(25.913 15.919)"/>
        <circle id="Ellipse_23" cx="3.201" cy="3.201" r="3.201" class="cls-8" transform="translate(34.916 25.032)"/>
        <circle id="Ellipse_24" cx="4.115" cy="4.115" r="4.115" class="cls-8" transform="translate(38.417 14.029)"/>
    </g>
    <circle id="Ellipse_28" cx="5.192" cy="5.192" r="5.192" class="cls-9" transform="translate(286.472 349.692)"/>
    <circle id="Ellipse_33" cx="5.192" cy="5.192" r="5.192" class="cls-2" transform="translate(489.616 234.571)"/>
    <circle id="Ellipse_33-2" cx="5.192" cy="5.192" r="5.192" class="cls-2" transform="translate(292.064 128.515)"/>
    <circle id="Ellipse_29" cx="4.543" cy="4.543" r="4.543" fill="#c578ff" transform="translate(0 234.571)"/>
    <circle id="Ellipse_32" cx="4.543" cy="4.543" r="4.543" class="cls-11" transform="translate(87.573)"/>
    <circle id="Ellipse_32-2" cx="4.543" cy="4.543" r="4.543" class="cls-12" transform="translate(165.013 97.986)"/>
    <circle id="Ellipse_32-3" cx="4.543" cy="4.543" r="4.543" fill="#fb5557" opacity="0.46" transform="translate(159.914 324.058)"/>
    <circle id="Ellipse_30" cx="4.543" cy="4.543" r="4.543" class="cls-14" transform="translate(389.006 320.095)"/>
    <circle id="Ellipse_31" cx="4.543" cy="4.543" r="4.543" class="cls-14" transform="translate(489.616 74.297)"/>
    <circle id="Ellipse_31-2" cx="4.543" cy="4.543" r="4.543" class="cls-14" transform="translate(113.476 440.938)"/>
    <g id="Group_643" transform="translate(205.178)">
        <g id="Group_35" transform="translate(30.999 9.914)">
            <path id="Path_72" fill="#ed2d24" d="M-242.364 392.425a2.306 2.306 0 0 1 2.41-.51c-.068-1.836 1.116-2.67 2.26-2.3a3.414 3.414 0 0 1 1.957 2.334c.01.033.017.063.026.1l.077-.059a3.394 3.394 0 0 1 2.976-.773c1.157.375 1.6 1.78.441 3.233a2.407 2.407 0 0 1 1.669 1.831l2.355.77c1.842-6-.217-9.307-4-10.542l-3.286-1.073c-3.815-1.244-7.321.283-9.153 6.249z" transform="translate(245.468 -384.165)"/>
            <path id="Path_73" fill="#a61e22" d="M-244.641 391.678c1.829-5.969 5.339-7.5 9.151-6.252l3.288 1.074c3.781 1.23 5.833 4.542 4 10.541l.83.272c.936-3.051.958-5.627.073-7.652a7.314 7.314 0 0 0-4.653-3.979l-3.29-1.073a7.062 7.062 0 0 0-6.044.5c-1.848 1.137-3.263 3.252-4.191 6.292z" transform="translate(245.478 -384.155)"/>
            <g id="Group_34" transform="translate(5.166 1.904)">
                <path id="Path_74" fill="#fff" d="M-240.2 387.355c-.191-.749.131-1.144.618-1.25s.962.111 1.148.863a3.174 3.174 0 0 1-.469 1.851 3.414 3.414 0 0 1-1.297-1.464z" transform="translate(240.253 -386.081)"/>
            </g>
        </g>
        <g id="Group_36" transform="translate(25.027 22.146)">
            <path id="Path_75" d="M-237.427 415.293c-.3-.34-9.428-8.37-14.091-8.871a2.471 2.471 0 0 0 .662-1.6l33.647 4.136v.013a5.38 5.38 0 0 1-5.155 4.859c1.259 3.164-.947 5.759-4.417 5.339-3.05-.375-4.239-2.4-5.018-2.734-1.425 1.598-3.901.821-5.628-1.142z" class="cls-8" transform="translate(251.518 -396.62)"/>
            <path id="Path_76" d="M-217.2 408.877h-.007l-33.646-4.163a2.6 2.6 0 0 0-.312-1.732c4.654.636 15.128-4.959 15.481-5.218 2.069-1.495 4.642-1.647 5.716.264.825-.139 2.381-1.823 5.438-1.445 3.469.43 5.112 3.5 3.263 6.28a5.714 5.714 0 0 1 4.067 6.014z" class="cls-2" transform="translate(251.514 -396.526)"/>
        </g>
        <g id="Group_37" transform="translate(.308 .021)">
            <path id="Path_77" d="M-267.739 396c.434.127 11.549 5.056 13.956 9.08a2.46 2.46 0 0 1 1.183-1.28l-17.849-28.822-.01.007a5.383 5.383 0 0 0-2.254 6.716c-3.4.184-4.833 3.272-2.995 6.245 1.616 2.613 3.955 2.845 4.584 3.413-.868 1.968.88 3.894 3.385 4.641z" class="cls-8" transform="translate(276.519 -374.158)"/>
            <path id="Path_78" d="M-270.4 374.982v.006l17.87 28.808a2.6 2.6 0 0 1 1.7-.438c-2.527-3.96-1.83-15.814-1.744-16.244.489-2.505-.448-4.905-2.633-5.08-.219-.808.66-2.926-.962-5.537-1.844-2.966-5.318-3.175-7.07-.327a5.711 5.711 0 0 0-7.161-1.188z" class="cls-2" transform="translate(276.45 -374.149)"/>
        </g>
        <g id="Group_38" transform="translate(24.66 4.231)">
            <path id="Path_79" fill="#efa7a8" d="M-236.22 391.25a8.45 8.45 0 0 1-11.611 2.826 8.452 8.452 0 0 1-2.826-11.611 8.45 8.45 0 0 1 11.611-2.825c.07.042.14.087.211.133a8.327 8.327 0 0 1 2.615 11.477z" transform="translate(251.889 -378.407)"/>
            <path id="Path_80" d="M-240.865 386.719l.581-.9a.78.78 0 0 0-.257-1.074.782.782 0 0 0-1.052.223c-.158.243-.3.552-.73.587l-1.623.143a.742.742 0 0 0-.684.8v.033l.276 2.365a.8.8 0 0 0 .858.692l1.994-.173a.747.747 0 0 0 .685-.8v-.032c-.167-1.433-.24-1.569-.046-1.868z" class="cls-19" transform="translate(251.807 -378.477)"/>
            <path id="Path_81" d="M-241.642 381.6l.744-.017a.51.51 0 0 0 .5-.516v-.022a.546.546 0 0 0-.561-.511.692.692 0 0 1-.632-.179l-.744-.843a.538.538 0 0 0-.748-.061l-1.225 1.047a.519.519 0 0 0-.048.733l.006.007.915 1.033a.536.536 0 0 0 .748.061c.743-.636.791-.727 1.038-.733z" class="cls-19" transform="translate(251.806 -378.417)"/>
            <path id="Path_82" d="M-245.185 382.875l-2-1.3a.685.685 0 0 0-.95.185l-1.7 2.623a.683.683 0 0 0 .215.943l.42.272a.684.684 0 0 0 .948-.185.684.684 0 0 1 .949-.187c.217.137.933.754 1.369.087l.969-1.493a.684.684 0 0 0-.216-.943z" class="cls-20" transform="translate(251.867 -378.441)"/>
            <path id="Path_83" d="M-247.405 389.606l-1.007 1.544a.545.545 0 0 0 .171.749l2.147 1.394a.541.541 0 0 0 .752-.145l.211-.324a.544.544 0 0 0-.17-.749.544.544 0 0 1-.171-.749c.107-.163.587-.717.04-1.073l-1.22-.791a.543.543 0 0 0-.753.148z" class="cls-20" transform="translate(251.851 -378.531)"/>
            <path id="Path_84" d="M-236.533 385.022a.658.658 0 0 1-.913.18l-2.234-1.452a.656.656 0 0 1-.212-.9.658.658 0 0 1 .912-.179l2.234 1.451a.659.659 0 0 1 .211.906z" class="cls-20" transform="translate(251.755 -378.454)"/>
            <path id="Path_85" d="M-237.062 389.819a1.441 1.441 0 0 1-1.977.481 1.441 1.441 0 0 1-.482-1.977 1.442 1.442 0 0 1 1.977-.481l.036.022a1.422 1.422 0 0 1 .447 1.958z" class="cls-20" transform="translate(251.752 -378.511)"/>
            <path id="Path_86" d="M-241.83 393.227a.722.722 0 0 1-.993.241.724.724 0 0 1-.238-.995.723.723 0 0 1 .995-.239l.02.012a.714.714 0 0 1 .22.983z" class="cls-20" transform="translate(251.791 -378.562)"/>
            <path id="Path_87" d="M-248.365 388.971a.713.713 0 0 1-.981.237.713.713 0 0 1-.238-.98.712.712 0 0 1 .979-.238l.019.012a.7.7 0 0 1 .22.967z" class="cls-20" transform="translate(251.864 -378.514)"/>
            <path id="Path_88" d="M-242.186 384.226a.494.494 0 0 1-.678.167.494.494 0 0 1-.167-.678.5.5 0 0 1 .679-.167l.014.009a.487.487 0 0 1 .152.669z" class="cls-20" transform="translate(251.79 -378.464)"/>
        </g>
        <g id="Group_39" transform="translate(16.036)">
            <path id="Path_89" d="M-248.055 384.419a6.771 6.771 0 0 1-9.3 2.263 6.772 6.772 0 0 1-2.264-9.3 6.772 6.772 0 0 1 9.3-2.263l.17.106a6.673 6.673 0 0 1 2.1 9.2z" class="cls-8" transform="translate(260.612 -374.128)"/>
            <path id="Path_90" d="M-249.064 383.77a5.552 5.552 0 0 1-7.63 1.86 5.554 5.554 0 0 1-1.86-7.63 5.556 5.556 0 0 1 7.632-1.859c.047.029.1.058.14.088a5.471 5.471 0 0 1 1.718 7.541z" class="cls-2" transform="translate(260.598 -374.142)"/>
        </g>
        <g id="Group_40" transform="translate(0 5.438)">
            <path id="Path_91" fill="#fcdb4e" d="M-239.2 384.157l-14.411 22.174-21.347-13.871a4.09 4.09 0 0 1-1.209-5.657 4.1 4.1 0 0 1 1.129-1.157c9.516-6.437 24.515-8.843 35.836-1.483z" transform="translate(276.831 -379.628)"/>
            <path id="Path_92" fill="#f2b65f" d="M-241.148 387.217l-12.442 19.15-19.389-12.6a4.153 4.153 0 0 1-1.2-5.747 4.17 4.17 0 0 1 1.673-1.469c9.644-4.7 21.921-5.472 31.361.666z" transform="translate(276.808 -379.664)"/>
            <path id="Path_93" fill="#fad229" d="M-238.94 384.209l-14.411 22.174 21.356 13.873a4.094 4.094 0 0 0 5.664-1.194 4.081 4.081 0 0 0 .593-1.5c2.015-11.312-1.879-25.992-13.2-33.348z" transform="translate(276.566 -379.68)"/>
            <path id="Path_94" fill="#e6ac4a" d="M-240.9 387.267l-12.443 19.15 19.39 12.6a4.151 4.151 0 0 0 5.74-1.235 4.166 4.166 0 0 0 .662-2.126c.378-10.72-3.906-22.253-13.348-28.389z" transform="translate(276.565 -379.714)"/>
        </g>
        <path id="Path_95" d="M-257.89 394.269a1.244 1.244 0 0 1-1.721.366 1.246 1.246 0 0 1-.366-1.723 1.248 1.248 0 0 1 1.724-.365 1.245 1.245 0 0 1 .367 1.722z" class="cls-25" transform="translate(276.643 -374.334)"/>
        <path id="Path_96" d="M-254.319 388.076a.856.856 0 0 1-1.185.251.856.856 0 0 1-.253-1.184.856.856 0 0 1 1.183-.253.856.856 0 0 1 .253 1.184z" class="cls-25" transform="translate(276.594 -374.27)"/>
        <path id="Path_97" d="M-267.242 393.511a.857.857 0 0 1-1.184.254.856.856 0 0 1-.253-1.184.856.856 0 0 1 1.184-.252.855.855 0 0 1 .255 1.182z" class="cls-25" transform="translate(276.74 -374.332)"/>
        <path id="Path_98" d="M-248.194 402.375a1.246 1.246 0 0 0 .365 1.723 1.249 1.249 0 0 0 1.725-.365 1.246 1.246 0 0 0-.366-1.723 1.245 1.245 0 0 0-1.723.364z" class="cls-25" transform="translate(276.51 -374.44)"/>
        <path id="Path_99" d="M-236.106 399.906a.858.858 0 0 0 .252 1.186.858.858 0 0 0 1.186-.251.856.856 0 0 0-.251-1.185.857.857 0 0 0-1.186.251z" class="cls-25" transform="translate(276.372 -374.415)"/>
    </g>
    <path id="oversized-wine-glass-2" d="M-248.472 599.618l4.948-8.233a8.68 8.68 0 0 0 11.067-3.4 16.006 16.006 0 0 0 1.838-5.462 1.1 1.1 0 0 0-.519-1.121l-10.985-6.6a1.1 1.1 0 0 0-1.236.068 15.691 15.691 0 0 0-4.042 4.34 8.659 8.659 0 0 0 2.275 11.2l-4.948 8.233c-2.648-1.31-5.257-1.351-5.6-.788-.374.623 1.678 2.541 4.585 4.283s5.564 2.657 5.938 2.034c.343-.545-.915-2.827-3.321-4.554zm5.834-22.937l10.076 6.054a13.627 13.627 0 0 1-1.5 4.283 6.572 6.572 0 0 1-.519.733 3.094 3.094 0 0 0-1.613-.893 5.593 5.593 0 0 1-4.042-2.062c-1.127-1.462-.479-4.647-2.364-5.509a5.352 5.352 0 0 0-2.226-.48 15.8 15.8 0 0 1 2.19-2.13z" class="cls-11" transform="translate(483.56 -154.25)"/>
    <path id="oversized-wine-glass-2-2" fill="#bfb2ff" d="M-105.924 411.618l-4.948-8.233a8.678 8.678 0 0 1-11.067-3.4 16 16 0 0 1-1.837-5.462 1.1 1.1 0 0 1 .519-1.12l10.985-6.6a1.1 1.1 0 0 1 1.233.067 15.667 15.667 0 0 1 4.046 4.344 8.655 8.655 0 0 1-2.274 11.21l4.947 8.233c2.649-1.311 5.258-1.351 5.6-.788.373.624-1.678 2.544-4.583 4.283s-5.564 2.657-5.937 2.034c-.346-.56.916-2.844 3.316-4.568zm-5.835-22.937l-10.075 6.054a13.667 13.667 0 0 0 1.5 4.283 6.552 6.552 0 0 0 .519.732 3.084 3.084 0 0 1 1.613-.892 5.593 5.593 0 0 0 4.042-2.062c1.127-1.463.479-4.647 2.364-5.509a5.349 5.349 0 0 1 2.226-.48 16.017 16.017 0 0 0-2.189-2.126z" transform="translate(497.587 -386.643)"/>
    <g id="Group_644" transform="translate(412.703 377.721)">
        <g id="Group_598">
            <path id="Ellipse_20-2" d="M35.92 0A35.92 35.92 0 1 1 0 35.92 35.92 35.92 0 0 1 35.92 0z" class="cls-1"/>
            <path id="Path_418-2" d="M-106.229 591.246a29.537 29.537 0 0 1 36.177 20.88 29.537 29.537 0 0 1-20.88 36.174 29.539 29.539 0 0 1-36.179-20.881 29.539 29.539 0 0 1 20.882-36.173z" class="cls-9" transform="translate(134.165 -584.047)"/>
            <g id="Group_588" transform="translate(39.1 24.916)">
                <path id="Path_406" d="M-94.68 625.648s-.467.027-.948.036-.976 0-.976 0-.222-.293-.571-.831c-.174-.267-.389-.589-.628-.967l-.771-1.273a34.369 34.369 0 0 1-3-7.212 28.675 28.675 0 0 1-1.083-7.312l.025-1.32.082-1.018a5.552 5.552 0 0 1 .067-.639l.031-.223s.408.428.819.836.85.8.85.8l-.061.8c0 .519-.044 1.259.013 2.173a26.217 26.217 0 0 0 .356 3.136 29.161 29.161 0 0 0 .909 3.635 30.866 30.866 0 0 0 3 6.594c.245.437.519.814.736 1.158s.428.635.6.872z" class="cls-12" transform="translate(102.655 -604.595)"/>
                <path id="Path_407" d="M-95.819 624.887s-.391.558-.755 1.137-.726 1.176-.726 1.176l-.519-.733a8.705 8.705 0 0 1-.566-.865c-.2-.348-.456-.718-.662-1.168a20.56 20.56 0 0 1-2.124-7.009 24.735 24.735 0 0 1-.145-4.089 27.05 27.05 0 0 1 .466-3.668c.2-1.079.47-1.981.637-2.6l.328-.985s.655-.221 1.3-.414 1.319-.358 1.319-.358l-.093.234a6.623 6.623 0 0 0-.238.658l-.344 1.028-.362 1.343a23.811 23.811 0 0 0-.619 7.159 20.168 20.168 0 0 0 1.628 6.568l.548 1.1c.175.319.348.585.48.811a5.246 5.246 0 0 0 .447.675z" class="cls-27" transform="translate(103.045 -604.472)"/>
                <path id="Path_408" d="M-102.628 605.089s.519.508 1.045.985 1.1.935 1.1.935.688-.177 1.372-.322 1.4-.26 1.4-.26-.544-.413-1.083-.855-1.067-.909-1.067-.909-.683.078-1.376.18-1.391.246-1.391.246z" class="cls-28" transform="translate(102.663 -604.663)"/>
            </g>
            <g id="Group_589" transform="translate(41.125 27.437)">
                <path id="Path_409" d="M-84.787 623.271l-.938.649-.971.636s-.317-.159-.839-.487l-.948-.587-1.193-.814a33.585 33.585 0 0 1-5.692-5.218 33.225 33.225 0 0 1-4.307-6.412l-.628-1.3-.439-1.024c-.13-.282-.212-.509-.267-.666l-.087-.237 1.142.143 1.158.1.356.835c.26.519.593 1.272 1.081 2.131a32.177 32.177 0 0 0 1.794 2.856 31.693 31.693 0 0 0 2.444 3 30.3 30.3 0 0 0 5.5 4.707c.827.544 1.532.973 2.042 1.242z" class="cls-12" transform="translate(101.095 -606.245)"/>
                <path id="Path_410" d="M-85.22 621.319l-.061 1.132-.029 1.15-.8-.434c-.509-.266-1.215-.7-2.042-1.242a30.262 30.262 0 0 1-5.5-4.707 31.5 31.5 0 0 1-2.442-3 31.885 31.885 0 0 1-1.8-2.862c-.487-.862-.827-1.613-1.083-2.131l-.356-.835.749-.853.778-.829.08.2c.047.13.122.332.231.578l.379.89.541 1.138a29.12 29.12 0 0 0 3.764 5.6 29.491 29.491 0 0 0 4.982 4.56l1.038.707.827.519c.464.284.744.419.744.419z" class="cls-27" transform="translate(101.624 -606.575)"/>
                <path id="Path_411" d="M-101.094 608.176l1.142.143 1.157.1.745-.857.779-.829-1.11-.049-1.12-.081-.807.771z" class="cls-28" transform="translate(101.095 -606.605)"/>
            </g>
            <g id="Group_570" transform="translate(12.35 34.751)">
                <path id="Path_366" d="M-101.257 627.3l-1.441.389.391.922c.13.056.249.11.371.169l4.64 2.262a2.389 2.389 0 0 0 1.141 3.178 2.388 2.388 0 0 0 3.178-1.141 2.39 2.39 0 0 0 .105-1.776 2.388 2.388 0 0 0 1.443-3.052 2.388 2.388 0 0 0-3.05-1.445 2.39 2.39 0 0 0-1.347 1.212l-4.752-2.316c-.06-.025-.106-.057-.161-.083l-1.089.3z" class="cls-3" transform="translate(129.392 -608.252)"/>
                <g id="Group_569">
                    <path id="Path_367" fill="#944434" d="M-103.632 629.578c-2.985-.7-6.163.114-9.181-.463a10.391 10.391 0 0 1-7.918-7.422 10.374 10.374 0 0 1 .993-7.486 10.3 10.3 0 0 0-.988 14.526 10.294 10.294 0 0 0 11.467 2.835 16.667 16.667 0 0 1 8.179-.962 9.1 9.1 0 0 0-2.552-1.028z" transform="translate(123.264 -611.654)"/>
                    <path id="Path_368" fill="#b85f3e" d="M-96.216 629.91l1.089-.3a17.152 17.152 0 0 1-8.546-10.218 10.291 10.291 0 0 0-12.937-6.661 10.327 10.327 0 0 0-3.645 2.061 10.366 10.366 0 0 0-.989 7.486 10.382 10.382 0 0 0 7.918 7.426c3.017.576 6.19-.23 9.181.463a9.137 9.137 0 0 1 2.552 1.027 17.114 17.114 0 0 1 4.9 1.41l-.389-.922 1.439-.389z" transform="translate(123.776 -612.24)"/>
                </g>
            </g>
            <g id="Group_578" transform="translate(41.912 26.329)">
                <path id="Path_382" d="M-89.124 626.384l-1.131-.226-1.128-.208s-.337-1.233-.967-3.046a57.836 57.836 0 0 0-2.745-6.471 57.687 57.687 0 0 0-3.536-6.075c-1.068-1.593-1.859-2.6-1.859-2.6l1.129-.214 1.131-.193s.8 1.062 1.874 2.734a56.888 56.888 0 0 1 3.554 6.36 57.411 57.411 0 0 1 2.726 6.76c.621 1.895.952 3.179.952 3.179z" class="cls-12" transform="translate(100.489 -605.273)"/>
                <path id="Path_383" d="M-87.947 625.291l-.845.794-.851.779s-.331-1.285-.953-3.175a57.628 57.628 0 0 0-2.724-6.76 57.3 57.3 0 0 0-3.555-6.36c-1.072-1.678-1.872-2.74-1.872-2.74l.519-1.038.5-1.038s.85 1.082 2 2.795a61 61 0 0 1 3.8 6.524 61.9 61.9 0 0 1 2.948 6.95c.669 1.942 1.033 3.269 1.033 3.269z" class="cls-27" transform="translate(101.008 -605.751)"/>
                <path id="Path_384" d="M-100.489 608.237l1.129-.214 1.131-.195.519-1.038.5-1.039-1.1.26-1.089.266-.54.99z" class="cls-28" transform="translate(100.489 -605.751)"/>
            </g>
            <g id="Group_579" transform="translate(52.053 26.096)">
                <path id="Path_385" d="M-84.735 627.187l-2.225-.432-5.712-20.092 2.23.432z" class="cls-12" transform="translate(92.677 -605.247)"/>
                <path id="Path_386" d="M-83.583 625.9l-1.663 1.541-5.712-20.092 1.669-1.54z" class="cls-27" transform="translate(93.188 -605.5)"/>
                <path id="Path_387" d="M-92.676 606.988l2.23.432 1.667-1.539-2.191-.309z" class="cls-28" transform="translate(92.676 -605.572)"/>
            </g>
            <g id="Group_580" transform="translate(46.686 23.234)">
                <path id="Path_388" d="M-86.758 627.117l-2.466-.62s-.306-1.4-.853-3.48-1.371-4.83-2.318-7.538-2.029-5.365-2.9-7.334-1.51-3.245-1.51-3.245l1.272.014 1.271.03s.64 1.32 1.506 3.342 1.947 4.75 2.883 7.529a105.536 105.536 0 0 1 3.115 11.302z" class="cls-12" transform="translate(96.811 -602.91)"/>
                <path id="Path_389" d="M-85.374 625.944l-1.966 1.626a105.344 105.344 0 0 0-3.115-11.293c-.941-2.783-2.017-5.51-2.889-7.529s-1.506-3.342-1.506-3.342l.779-1.013.77-1.02s.668 1.342 1.578 3.4 2.038 4.834 3.036 7.658 1.85 5.7 2.422 7.877.891 3.636.891 3.636z" class="cls-27" transform="translate(97.395 -603.365)"/>
                <path id="Path_390" d="M-96.811 605.356l1.272.014 1.271.03.779-1.012.77-1.02-2.49.089z" class="cls-28" transform="translate(96.811 -603.367)"/>
            </g>
            <g id="Group_591" transform="translate(36.395 30.542)">
                <path id="Path_388-2" d="M-103.748 609h2.164s.541 1.092 1.428 2.694 2.125 3.7 3.464 5.739 2.778 4.008 3.9 5.451 1.917 2.37 1.917 2.37l-1.051.249-1.055.236s-.8-.957-1.929-2.445-2.588-3.515-3.934-5.616a90 90 0 0 1-4.904-8.678z" class="cls-12" transform="translate(105.034 -608.997)"/>
                <path id="Path_389-2" d="M-104.739 610.744l1.286-1.747a89.955 89.955 0 0 0 4.9 8.677c1.346 2.1 2.8 4.131 3.933 5.616s1.93 2.447 1.93 2.447l-.436 1-.423 1s-.828-.97-2-2.478-2.678-3.568-4.082-5.7-2.7-4.321-3.623-5.994-1.485-2.821-1.485-2.821z" class="cls-27" transform="translate(104.739 -608.997)"/>
                <path id="Path_390-2" d="M-93.147 621.521l-1.053.249-1.055.236-.436 1-.424 1 2.035-.587z" class="cls-28" transform="translate(107.309 -605.265)"/>
            </g>
            <g id="Group_574" transform="translate(47.619 26.593)">
                <path id="Path_373" d="M-94.794 624.5l-.649-.7-.649-.684s.371-.988.826-2.5a47.264 47.264 0 0 0 1.3-5.649 46.934 46.934 0 0 0 .575-5.767c.057-1.582.016-2.636.016-2.636l.861.4.848.422s.023 1.094-.067 2.726a46.817 46.817 0 0 1-.7 5.971 47.677 47.677 0 0 1-1.447 5.833c-.51 1.566-.914 2.584-.914 2.584z" class="cls-12" transform="translate(96.092 -605.774)"/>
                <path id="Path_374" d="M-93.2 624.288l-.948.118-.944.108s.4-1.019.9-2.577a47.679 47.679 0 0 0 1.449-5.833 46.821 46.821 0 0 0 .7-5.971c.091-1.638.069-2.734.069-2.734l.848-.44.837-.456s.043 1.133-.018 2.832a50.273 50.273 0 0 1-.614 6.193 50.733 50.733 0 0 1-1.389 6.067c-.49 1.636-.89 2.693-.89 2.693z" class="cls-27" transform="translate(96.39 -605.791)"/>
                <path id="Path_375" d="M-94 606.744l.859.4.848.418.848-.436.837-.456-.858-.364-.857-.35-.84.4z" class="cls-28" transform="translate(96.714 -605.955)"/>
            </g>
            <g id="Group_575" transform="translate(51.838 31.292)">
                <path id="Path_376" d="M-91.563 627.22l-1.279-1.366 5.9-16.182 1.28 1.366z" class="cls-12" transform="translate(92.842 -609.546)"/>
                <path id="Path_377" d="M-90 626.734l-1.859.222 5.9-16.182 1.857-.223z" class="cls-27" transform="translate(93.136 -609.285)"/>
                <path id="Path_378" d="M-88.3 609.7l1.279 1.367 1.859-.222-1.314-1.266z" class="cls-28" transform="translate(94.196 -609.575)"/>
            </g>
            <g id="Group_576" transform="translate(49.882 26.795)">
                <path id="Path_379" d="M-93 626.194l-1.351-1.607s.467-1.08 1.11-2.739 1.419-3.894 2.094-6.155 1.238-4.565 1.6-6.3.567-2.9.567-2.9l.844.624.835.635s-.21 1.191-.61 2.96-.993 4.116-1.712 6.425A87.123 87.123 0 0 1-93 626.194z" class="cls-12" transform="translate(94.349 -605.996)"/>
                <path id="Path_380" d="M-91.209 625.909l-2.1.136a87.15 87.15 0 0 0 3.375-9.059c.718-2.309 1.319-4.654 1.712-6.424s.611-2.965.611-2.965l1.01-.3 1-.31s-.2 1.22-.587 3.033-.976 4.216-1.677 6.587-1.521 4.7-2.188 6.434-1.156 2.868-1.156 2.868z" class="cls-27" transform="translate(94.659 -605.847)"/>
                <path id="Path_381" d="M-90.211 606.6l.844.624.833.633 1.016-.3 1-.311-1.706-1.142z" class="cls-28" transform="translate(95.582 -606.11)"/>
            </g>
            <g id="Group_590" transform="translate(42.046 32.236)">
                <path id="Path_379-2" d="M-83.215 611.191l.113 2.1s-1.022.581-2.534 1.52-3.475 2.252-5.375 3.656-3.737 2.9-5.07 4.067-2.2 1.977-2.2 1.977l-.3-1.006-.284-1.01s.885-.824 2.269-2 3.27-2.688 5.232-4.1a86.99 86.99 0 0 1 8.149-5.204z" class="cls-12" transform="translate(100.84 -610.037)"/>
                <path id="Path_380-2" d="M-84.513 610.3l1.757 1.157a87.055 87.055 0 0 0-8.146 5.2c-1.963 1.412-3.854 2.923-5.232 4.1s-2.273 2-2.273 2l-.985-.371-.989-.357s.894-.854 2.294-2.069 3.315-2.78 5.3-4.252 4.046-2.841 5.62-3.823 2.654-1.585 2.654-1.585z" class="cls-27" transform="translate(100.387 -610.302)"/>
                <path id="Path_381-2" d="M-97.826 622.08l-.3-1.006-.284-1.009-.989-.373-.988-.354.675 1.939z" class="cls-28" transform="translate(100.386 -607.609)"/>
            </g>
            <g id="Group_586" transform="translate(42.683 26.569)">
                <path id="Path_400" d="M-98.074 623.623s-.43-.152-.861-.319-.858-.353-.858-.353-.04-.283-.062-.786c-.01-.249-.034-.552-.04-.9V620.1a24.716 24.716 0 0 1 1-6.145 24.416 24.416 0 0 1 2.558-5.689l.637-.979.531-.725q.222-.306.353-.46l.13-.16s.178.434.366.85.4.839.4.839l-.43.588c-.25.389-.632.932-1.014 1.629a23.361 23.361 0 0 0-1.2 2.434 23.391 23.391 0 0 0-.984 2.949 22.126 22.126 0 0 0-.715 5.762c-.01.4.026.761.036 1.083s.039.6.066.832z" class="cls-12" transform="translate(99.895 -605.935)"/>
                <path id="Path_401" d="M-96.9 622.255s-.389.227-.779.476-.77.508-.77.508l-.08-.724c-.027-.23-.056-.51-.066-.832s-.049-.685-.036-1.083a22.091 22.091 0 0 1 .715-5.764 23.41 23.41 0 0 1 .988-2.949 23.509 23.509 0 0 1 1.192-2.43c.391-.7.762-1.237 1.015-1.629l.431-.591s.453.077.9.169.893.208.893.208l-.115.13c-.074.087-.178.219-.3.389l-.454.622-.548.839a21.065 21.065 0 0 0-2.205 4.905 21.282 21.282 0 0 0-.865 5.309v1c0 .3.027.557.035.77a6.561 6.561 0 0 0 .049.677z" class="cls-27" transform="translate(100.27 -605.548)"/>
                <path id="Path_402" d="M-95.881 605.936s.178.433.366.85.4.839.4.839.452.075.9.167.894.209.894.209-.215-.389-.419-.786-.4-.81-.4-.81-.426-.13-.861-.245-.88-.224-.88-.224z" class="cls-28" transform="translate(101.091 -605.936)"/>
            </g>
        </g>
        <circle id="Ellipse_25" cx="4.378" cy="4.378" r="4.378" class="cls-31" transform="translate(19.569 16.348)"/>
        <circle id="Ellipse_26" cx="2.786" cy="2.786" r="2.786" class="cls-31" transform="translate(27.406 24.28)"/>
        <circle id="Ellipse_27" cx="3.582" cy="3.582" r="3.582" class="cls-31" transform="translate(30.452 14.705)"/>
    </g>
    <g id="Group_3" transform="rotate(-8 2366.753 165.5)">
        <g id="Group_1">
            <path id="Path_7" fill="#f5ac28" d="M0 21.163L39.063 46.7a1.153 1.153 0 0 0 1.611-.258 1.153 1.153 0 0 0 .2-.837L36.231 0C9.264 3.214 0 21.163 0 21.163z" transform="translate(6.33 8.795)"/>
            <path id="Path_8" d="M3.392 25.107a11.2 11.2 0 0 1 5.99-4.932c4.564-1.847 7.7-6.242 11.161-9.947 3.694-3.957 6.057-1.616 13.152-3.634S37.381 0 37.381 0L21.5 3.153 0 21.487l2.034 2.663z" transform="translate(4.501 5.872)" style="isolation:isolate" fill="#d6d6d6" opacity="0.38"/>
            <path id="Path_9" fill="#f7ce93" d="M38.667 0A43.2 43.2 0 0 0 .692 22.578a5.123 5.123 0 0 0 1.194 6.541 4.844 4.844 0 0 0 4.635.909s4.42-6.822 9.464-8.6c4.709-1.656 5.631-5.8 8.506-7.447q.323-.16.655-.315c3.4-1.347 5.928-1.393 12.537-3.128 2.456-.649 3.756-1.05 4.427-1.307a4.265 4.265 0 0 0 .418-.18l.41-.175a4.662 4.662 0 0 0 1.369-4.225A5.637 5.637 0 0 0 38.667 0z"/>
        </g>
        <path id="Path_10" d="M7.361 1.944a3.942 3.942 0 1 1 0-.007z" class="cls-35" transform="translate(17.301 22.616)"/>
        <path id="Path_11" d="M7.36 1.944A3.955 3.955 0 1 1 1.941.552 3.955 3.955 0 0 1 7.36 1.944z" class="cls-35" transform="translate(30.397 18.133)"/>
        <path id="Path_12" d="M7.36 1.944A3.955 3.955 0 0 1 .55 5.969 3.955 3.955 0 0 1 7.358 1.94z" class="cls-35" transform="translate(31.599 34.443)"/>
        <g id="Group_2" transform="translate(13.398 13.786)">
            <path id="Path_13" d="M.2.72L0 4.571c-.049.964 1.447.953 1.5-.007L1.7.718C1.744-.247.247-.234.2.724z" class="cls-36" transform="translate(17.183 13.863)"/>
            <path id="Path_14" d="M.363 1.418L2.27 2.574c.824.5 1.551-.81.728-1.308L1.091.111C.266-.387-.462.921.363 1.418z" class="cls-36" transform="translate(0 15.084)"/>
            <path id="Path_15" d="M.188.753L0 2.523a.753.753 0 0 0 .752.745.767.767 0 0 0 .748-.753l.185-1.77A.755.755 0 0 0 .932 0a.767.767 0 0 0-.744.753z" class="cls-36" transform="translate(11.918 3.115)"/>
            <path id="Path_16" d="M.529 1.463l2.2.565A.747.747 0 1 0 3.1.58L.9.016a.748.748 0 0 0-.371 1.447z" class="cls-36" transform="translate(24.479 17.02)"/>
            <path id="Path_17" d="M.517.551l-.5 2.736c-.173.944 1.279 1.32 1.449.371l.5-2.735C2.139-.021.689-.4.517.551z" class="cls-36" transform="translate(28.249 32.081)"/>
            <path id="Path_18" d="M.561 1.47l2.039.649A.747.747 0 0 0 2.975.672L.932.023A.747.747 0 0 0 .561 1.47z" class="cls-36" transform="translate(22.454)"/>
            <path id="Path_19" d="M.256 1.311c.173.173.344.348.519.519a.746.746 0 0 0 1.055-.056.748.748 0 0 0-.015-1.018l-.52-.519A.748.748 0 0 0 .238.2.747.747 0 0 0 .2 1.259l.054.053z" class="cls-36" transform="translate(13.388 23.89)"/>
        </g>
        <path id="Path_20" d="M1.9 6.378a32.693 32.693 0 0 1 3.323-4.646c.836-.975-.6-2.382-1.442-1.4A35.766 35.766 0 0 0 .146 5.4c-.659 1.111 1.1 2.094 1.754.976z" class="cls-37" transform="translate(21.776 29.933)"/>
        <path id="Path_21" d="M2 6.913a32.912 32.912 0 0 1 .536-5.687C2.769-.038.82-.53.592.748A35.919 35.919 0 0 0 0 6.952a1.006 1.006 0 0 0 2.009-.039z" class="cls-37" transform="translate(39.749 20.149)"/>
        <path id="Path_22" d="M1.77 5.685a32.994 32.994 0 0 1 4.258-3.807C7.057 1.112 5.961-.578 4.922.2A35.834 35.834 0 0 0 .271 4.354c-.887.941.611 2.279 1.5 1.337z" class="cls-37" transform="translate(37.218 41.049)"/>
    </g>
    <g id="Group_760" opacity="0.883" transform="rotate(32 -2.42 787.672)">
        <path id="Path_28" fill="#f5b654" d="M2.278 16.377a3 3 0 0 1-2.19-3.626L3.235 0l5.817 1.436L5.9 14.187a3 3 0 0 1-3.622 2.19z" transform="translate(4.349 28.088)"/>
        <path id="Rectangle_5" d="M9.563 0a9.563 9.563 0 0 1 9.563 9.563v21.144a2.222 2.222 0 0 1-2.226 2.222H2.222A2.222 2.222 0 0 1 0 30.707V9.563A9.563 9.563 0 0 1 9.563 0z" class="cls-11" transform="rotate(13.83 3.916 32.406)"/>
        <g id="Group_7" opacity="0.87" transform="translate(5.381 5.873)">
            <path id="Path_29" d="M1.4 23.78a1.845 1.845 0 0 1-1.35-2.235L5.025 1.4A1.847 1.847 0 0 1 7.26.054a1.847 1.847 0 0 1 1.35 2.235L3.639 22.43A1.846 1.846 0 0 1 1.4 23.78z" class="cls-41"/>
            <path id="Path_30" d="M1.4 23.78a1.847 1.847 0 0 1-1.35-2.235L5.025 1.4A1.847 1.847 0 0 1 7.26.054a1.846 1.846 0 0 1 1.35 2.235L3.64 22.43a1.847 1.847 0 0 1-2.24 1.35z" class="cls-41" transform="translate(6.854 1.692)"/>
        </g>
    </g>
</svg>
