<svg xmlns="http://www.w3.org/2000/svg" width="20.039" height="18" viewBox="0 0 20.039 18">
    <g>
        <g>
            <path d="M-61.266 121.086a3.285 3.285 0 0 1-3.285 3.285 3.285 3.285 0 0 1-3.285-3.285 3.285 3.285 0 0 1 3.286-3.286 3.284 3.284 0 0 1 3.285 3.283zm-5.108 0a1.823 1.823 0 0 0 1.822 1.822 1.823 1.823 0 0 0 1.822-1.822 1.822 1.822 0 0 0-1.822-1.822 1.822 1.822 0 0 0-1.824 1.82z" transform="translate(75.544 -106.254) translate(-67.913 117.685) translate(67.835 -117.801)"/>
        </g>
        <g>
            <path d="M-66.427 109.539a3.285 3.285 0 0 1-3.285 3.285A3.285 3.285 0 0 1-73 109.539a3.284 3.284 0 0 1 3.284-3.285 3.29 3.29 0 0 1 3.289 3.285zm-5.108 0a1.82 1.82 0 0 0 1.82 1.82 1.821 1.821 0 0 0 1.821-1.82 1.821 1.821 0 0 0-1.82-1.821 1.82 1.82 0 0 0-1.822 1.82z" transform="translate(75.544 -106.254) translate(-73.022 106.254) translate(72.996 -106.254)"/>
        </g>
        <g>
            <path d="M-67.181 121.112a.733.733 0 0 1-.732.731h-6.93a.732.732 0 0 1-.7-.761.732.732 0 0 1 .7-.7h6.93a.732.732 0 0 1 .732.73z" transform="translate(75.544 -106.254) translate(-75.544 120.238) translate(75.544 -120.38)"/>
        </g>
        <g>
            <path d="M-72.289 109.565a.73.73 0 0 1-.727.732h-1.826a.732.732 0 0 1-.7-.761.731.731 0 0 1 .7-.7h1.82a.73.73 0 0 1 .732.728z" transform="translate(75.544 -106.254) translate(-75.544 108.808) translate(75.544 -108.834)"/>
        </g>
        <g>
            <path d="M-55.348 121.112a.733.733 0 0 1-.731.731h-3.04a.732.732 0 0 1-.772-.689.732.732 0 0 1 .689-.772h3.12a.731.731 0 0 1 .734.728z" transform="translate(75.544 -106.254) translate(-60.05 120.238) translate(59.892 -120.38)"/>
        </g>
        <g>
            <path d="M-55.4 109.565a.731.731 0 0 1-.73.732h-8.147a.731.731 0 0 1-.7-.761.731.731 0 0 1 .7-.7h8.147a.73.73 0 0 1 .731.729z" transform="translate(75.544 -106.254) translate(-65.084 108.808) translate(64.978 -108.834)"/>
        </g>
    </g>
</svg>
