<svg xmlns="http://www.w3.org/2000/svg" width="40" height="40" viewBox="0 0 40 40">
    <g>
        <g>
            <g opacity="0.1">
                <g>
                    <path fill="#333a50" d="M127.5 107a20 20 0 1 0-20 20 20 20 0 0 0 20-20z" transform="translate(-1693 -975) rotate(180 910.25 551)"/>
                </g>
            </g>
            <g opacity="0.3">
                <g>
                    <path d="M104.449 109.525l5.031-5.033a1.006 1.006 0 0 0 0-1.419l-5.033-5.033a1.007 1.007 0 0 0-1.419 1.419l4.318 4.318-4.318 4.328a1 1 0 0 0 1.419 1.419z" transform="translate(-1693 -975) rotate(180 909.378 549.399) translate(102.755 97.798) translate(-102.755 -97.798)"/>
                </g>
            </g>
        </g>
    </g>
</svg>
