<svg xmlns="http://www.w3.org/2000/svg" width="197.071" height="60" viewBox="0 0 197.071 60">
    <g id="logo_3" data-name="logo 3" transform="translate(-36 -38.302)">
        <g id="Group_726" data-name="Group 726" transform="translate(94.452 47.152)">
            <path id="Path_683" d="M173.989 96.464h-5.405V84.056c0-2.632-1.081-4.042-3.619-4.042a4.761 4.761 0 0 0-4.371 2.444c0 .328.047 1.081.047 1.551v12.455h-5.4V83.68c0-2.209-1.222-3.665-3.525-3.665a5.125 5.125 0 0 0-4.418 2.256v14.193h-5.405v-21.15h5.405v2.35a8.944 8.944 0 0 1 6.627-2.726c3.243 0 5.4 1.457 6.157 3.384a8.613 8.613 0 0 1 7.144-3.384c3.854 0 6.768 1.927 6.768 7.708z" data-name="Path 683" transform="translate(-141.887 -63.564)"/>
            <path id="Path_684" d="M218.813 96.769c-3.1 7.568-5.076 9.4-8.178 9.4a7.436 7.436 0 0 1-4.559-1.645l1.739-4.089a4.58 4.58 0 0 0 2.209.752c1.363 0 2.35-1.081 3.243-3.29l.47-1.128-9.776-21.15h6.486l4.936 11.563c.423 1.034.7 2.02 1.034 3.054a21.158 21.158 0 0 1 .752-3.1l3.807-11.515h6.158z" data-name="Path 684" transform="translate(-169.695 -63.869)"/>
            <path id="Path_685" d="M264.438 85.025a7.945 7.945 0 0 1-6.063 2.585c-6.063 0-9.964-4.278-9.964-10.716 0-6.674 4.795-11.327 11.609-11.327a8.2 8.2 0 0 1 4.418 1.034V54.334h5.4v32.9h-5.4zm0-4.606v-8.507a7.762 7.762 0 0 0-4.183-1.269 5.818 5.818 0 0 0-6.063 6.063c0 3.76 2.444 5.875 5.311 5.875a7.072 7.072 0 0 0 4.935-2.162z" data-name="Path 685" transform="translate(-189.607 -54.334)"/>
            <path id="Path_686" d="M300.928 56.121a3.107 3.107 0 0 1 3.1 3.149 3.171 3.171 0 0 1-3.1 3.385 3.23 3.23 0 0 1-3.384-3.385 3.177 3.177 0 0 1 3.384-3.149zm-2.82 10.763h5.405v21.15h-5.405z" data-name="Path 686" transform="translate(-211.618 -55.135)"/>
            <path id="Path_687" d="M317.952 81.122c0-4.136 3.384-6.439 7.755-6.439a11.7 11.7 0 0 1 8.037 2.678l-2.021 3.854a9.972 9.972 0 0 0-5.734-2.021c-1.644 0-2.632.893-2.632 1.833 0 3.525 11.421 1.6 11.421 9.071 0 4.183-3.384 6.768-8.554 6.768-3.9 0-7.849-2.115-8.836-3.619l2.632-3.525a10.889 10.889 0 0 0 6.58 2.632c1.551 0 2.773-.659 2.773-1.975 0-3.429-11.421-1.549-11.421-9.257z" data-name="Path 687" transform="translate(-220.508 -63.45)"/>
            <path id="Path_688" d="M356.474 54.334h5.405v13.677a8.956 8.956 0 0 1 6.063-2.3c5.17 0 8.695 2.632 8.695 9.259v12.264h-5.4V75.672c0-3.149-1.739-4.888-4.7-4.888a6.62 6.62 0 0 0-4.652 1.927v14.523h-5.405z" data-name="Path 688" transform="translate(-238.018 -54.334)"/>
        </g>
        <path id="Path_689" fill="#fb5557" d="M58.852 38.3A22.878 22.878 0 0 0 36 61.153c0 8.135 2.475 11.4 14.365 27.072 2.064 2.721 4.4 5.805 7.081 9.374a1.757 1.757 0 0 0 2.812 0c2.661-3.55 4.991-6.622 7.046-9.333 11.919-15.72 14.4-18.992 14.4-27.112A22.877 22.877 0 0 0 58.852 38.3zm1.706 14.654a1.6 1.6 0 0 1 3.2 0v9.921a1.6 1.6 0 1 1-3.2 0zm-6.617 0a1.6 1.6 0 0 1 1.6-1.6 1.6 1.6 0 0 1 1.6 1.6v9.921a1.6 1.6 0 0 1-1.6 1.6 1.6 1.6 0 0 1-1.6-1.6zM70.223 67.35a11.371 11.371 0 0 1-11.371 11.371A11.371 11.371 0 0 1 47.48 67.35V52.956a1.6 1.6 0 0 1 3.2 0v14.138a8.167 8.167 0 0 0 8.167 8.167 8.167 8.167 0 0 0 8.167-8.167V52.956a1.6 1.6 0 0 1 1.6-1.6 1.6 1.6 0 0 1 1.6 1.6z" data-name="Path 689"/>
    </g>
</svg>
