<svg xmlns="http://www.w3.org/2000/svg" width="15.432" height="15.5" viewBox="0 0 15.432 15.5">
    <g>
        <path stroke="#000" stroke-width="0.5px" d="M2.351 8.942a1.566 1.566 0 0 1 1.136-.521 1.619 1.619 0 0 1 1.149.517L5.7 10c.087-.047.175-.091.259-.134.121-.06.235-.118.333-.178a11.541 11.541 0 0 0 2.765-2.52 6.809 6.809 0 0 0 .907-1.431c-.276-.252-.531-.514-.78-.766l-.282-.286a1.542 1.542 0 0 1 0-2.325l.917-.917c.1-.1.212-.212.313-.319.2-.208.413-.423.632-.625A1.591 1.591 0 0 1 11.887 0a1.646 1.646 0 0 1 1.143.494l.006.006 1.142 1.153a2.458 2.458 0 0 1 .729 1.563 5.891 5.891 0 0 1-.43 2.493A14.468 14.468 0 0 1 11.907 10a15.813 15.813 0 0 1-5.265 4.12 8.2 8.2 0 0 1-2.957.874C3.614 15 3.54 15 3.473 15a2.532 2.532 0 0 1-1.939-.833c0-.007-.01-.01-.013-.017a7.639 7.639 0 0 0-.588-.608C.788 13.4.64 13.259.5 13.108a1.676 1.676 0 0 1-.507-1.163 1.615 1.615 0 0 1 .517-1.153zm-1.2 3.538c.131.141.265.269.41.41a8.836 8.836 0 0 1 .649.672 1.62 1.62 0 0 0 1.26.538h.155a7.288 7.288 0 0 0 2.621-.786A14.926 14.926 0 0 0 11.2 9.422a13.642 13.642 0 0 0 2.419-4.029A4.8 4.8 0 0 0 14 3.29a1.542 1.542 0 0 0-.464-1l-1.145-1.144a.764.764 0 0 0-.511-.239.719.719 0 0 0-.491.235l-.01.01c-.2.192-.4.39-.6.6-.1.108-.212.215-.319.326L9.538 3a.641.641 0 0 0 0 1.042c.1.1.192.195.289.289.282.289.551.558.843.82.007.007.013.01.017.017a.685.685 0 0 1 .175.763l-.01.03a7.365 7.365 0 0 1-1.085 1.767 12.333 12.333 0 0 1-2.987 2.719 4.588 4.588 0 0 1-.413.225c-.121.06-.235.118-.333.178l-.04.024a.728.728 0 0 1-.333.084.718.718 0 0 1-.511-.232L4 9.577a.76.76 0 0 0-.507-.252.684.684 0 0 0-.484.245L3 9.577l-1.849 1.851a.664.664 0 0 0-.003 1.052z" transform="translate(.25 .25) translate(.011)"/>
    </g>
</svg>
