<svg xmlns="http://www.w3.org/2000/svg" width="44.997" height="45" viewBox="0 0 44.997 45">
    <defs>
        <style>
            .prefix__cls-1{fill:#fff}
        </style>
    </defs>
    <g id="prefix__spinner" transform="translate(3187.901 460.555)">
        <g id="prefix__Group_611" data-name="Group 611" transform="translate(-3187.901 -460.555)">
            <g id="prefix__Group_596" data-name="Group 596">
                <path id="prefix__Path_783" d="M-3158.675-452.4a2.092 2.092 0 01-2.126-2.055v-3.979a2.128 2.128 0 012.126-2.126 2.128 2.128 0 012.126 2.126v3.9a2.135 2.135 0 01-2.126 2.134z" class="prefix__cls-1" data-name="Path 783" transform="translate(3181.173 460.555)"/>
                <path id="prefix__Path_784" d="M-3158.675-403.521a2.091 2.091 0 01-2.126-2.054v-3.979a2.126 2.126 0 012.126-2.126 2.128 2.128 0 012.126 2.126v3.9a2.093 2.093 0 01-2.048 2.134z" class="prefix__cls-1" data-name="Path 784" transform="translate(3181.173 448.52)"/>
                <path id="prefix__Path_782" d="M-3170.3-449.282a2.136 2.136 0 01-1.841-1.064l-1.914-3.332a2.126 2.126 0 01.777-2.905 2.126 2.126 0 012.9.777l1.915 3.333a2.173 2.173 0 01-.78 2.907 2.664 2.664 0 01-1.057.284z" class="prefix__cls-1" data-name="Path 782" transform="translate(3184.547 459.572)"/>
                <path id="prefix__Path_785" d="M-3145.818-406.991a2.14 2.14 0 01-1.841-1.064l-1.915-3.332a2.127 2.127 0 01.776-2.906 2.127 2.127 0 012.906.776l1.915 3.333a2.173 2.173 0 01-.782 2.907 2 2 0 01-1.059.286z" class="prefix__cls-1" data-name="Path 785" transform="translate(3178.493 449.294)"/>
                <path id="prefix__Path_781" d="M-3178.76-440.832a2 2 0 01-1.062-.282l-3.333-1.915a2.126 2.126 0 01-.781-2.9 2.126 2.126 0 012.9-.782l3.332 1.914a2.173 2.173 0 01.78 2.907 2.136 2.136 0 01-1.836 1.058z" class="prefix__cls-1" data-name="Path 781" transform="translate(3186.918 457.202)"/>
                <path id="prefix__Path_786" d="M-3136.388-416.345a2 2 0 01-1.064-.284l-3.4-1.914a2.127 2.127 0 01-.781-2.9 2.127 2.127 0 012.9-.782l3.332 1.914a2.17 2.17 0 01.779 2.907 1.948 1.948 0 01-1.766 1.059z" class="prefix__cls-1" data-name="Path 786" transform="translate(3176.638 451.147)"/>
                <path id="prefix__Path_787" d="M-3181.871-429.2h-3.9a2.126 2.126 0 01-2.126-2.126 2.126 2.126 0 012.126-2.126h3.9a2.092 2.092 0 012.126 2.055v.073a2.134 2.134 0 01-2.126 2.124z" class="prefix__cls-1" data-name="Path 787" transform="translate(3187.901 453.827)"/>
                <path id="prefix__Path_788" d="M-3132.989-429.2h-3.905a2.126 2.126 0 01-2.128-2.125 2.128 2.128 0 012.128-2.126h3.9a2.128 2.128 0 012.128 2.126 2.126 2.126 0 01-2.126 2.126h.005z" class="prefix__cls-1" data-name="Path 788" transform="translate(3175.865 453.827)"/>
                <path id="prefix__Path_789" d="M-3182.186-416.346a2.138 2.138 0 01-1.841-1.062 2.173 2.173 0 01.78-2.907l3.332-1.914a2.128 2.128 0 012.905.777 2.126 2.126 0 01-.775 2.9l-3.333 1.914a1.693 1.693 0 01-1.068.292z" class="prefix__cls-1" data-name="Path 789" transform="translate(3186.939 451.147)"/>
                <path id="prefix__Path_790" d="M-3139.788-440.831a2.139 2.139 0 01-1.841-1.064 2.173 2.173 0 01.78-2.907l3.333-1.914a2.126 2.126 0 012.905.776 2.126 2.126 0 01-.777 2.905l-3.332 1.914a2 2 0 01-1.068.29z" class="prefix__cls-1" data-name="Path 790" transform="translate(3176.632 457.203)"/>
                <path id="prefix__Path_791" d="M-3172.218-406.992a2 2 0 01-1.064-.282 2.174 2.174 0 01-.779-2.908l1.916-3.332a2.127 2.127 0 012.9-.781 2.124 2.124 0 01.782 2.9l-1.913 3.332a2.14 2.14 0 01-1.842 1.071z" class="prefix__cls-1" data-name="Path 791" transform="translate(3184.545 449.294)"/>
                <path id="prefix__Path_792" d="M-3147.729-449.283a2.006 2.006 0 01-1.064-.284 2.172 2.172 0 01-.78-2.907l1.913-3.333a2.128 2.128 0 012.905-.781 2.128 2.128 0 01.781 2.9l-1.915 3.333a2.3 2.3 0 01-1.84 1.072z" class="prefix__cls-1" data-name="Path 792" transform="translate(3178.488 459.572)"/>
            </g>
        </g>
    </g>
</svg>
