<svg xmlns="http://www.w3.org/2000/svg" width="15.817" height="16" viewBox="0 0 15.817 16">
  <path id="vegetarien" d="M71.511.643a.592.592,0,0,0-.5-.459A19.715,19.715,0,0,0,64.295.4,13.067,13.067,0,0,0,57.776,3.92a7.081,7.081,0,0,0,.848,10.732,6.226,6.226,0,0,0,1.185.7,7.092,7.092,0,0,0,7.975-1.421c2.086-2.086,1.654-4.96,1.512-6.573-.217-2.463-.4-4.589,1.954-6.082A.592.592,0,0,0,71.511.643Zm-12.9,4.114A12.419,12.419,0,0,1,66.7,1.237a13.941,13.941,0,0,0-3.969,2.949,14.951,14.951,0,0,0-4.049,8.974A5.9,5.9,0,0,1,58.614,4.758Zm9.5,2.7c.186,2.109.361,4.1-1.17,5.632a5.9,5.9,0,0,1-7.127.929A13.783,13.783,0,0,1,63.594,5a12.8,12.8,0,0,1,3.619-2.693,9.862,9.862,0,0,1,1.9-.7A5.058,5.058,0,0,0,68.16,3.66,12.633,12.633,0,0,0,68.116,7.459Z" transform="translate(-55.709 0.001)"/>
</svg>
